<svg width="800" height="800" viewBox="0 0 800 800" fill="none" xmlns="http://www.w3.org/2000/svg">
<path class="inner" d="M92.5 429.5C92.5 422.167 108.2 400.6 171 373L252 329L281.5 238L367.5 73.5H433.5L740.5 373V429.5L468 550L409 697L367.5 714.5L92.5 429.5Z" stroke="black"/>
<path d="M635.733 267.867L618.033 285.533L635.7 267.867H635.733ZM521.667 523.8L530.467 547.233L521.667 523.833V523.8ZM243.4 337.867L228.767 317.567L243.4 337.9V337.867ZM49 715.667C44.3145 720.361 41.6857 726.724 41.692 733.357C41.6982 739.99 44.339 746.348 49.0333 751.033C53.7277 755.719 60.091 758.348 66.7236 758.341C73.3561 758.335 79.7145 755.694 84.4 751L49 715.667ZM239.5 595.733C244.052 591.016 246.569 584.7 246.509 578.145C246.449 571.59 243.816 565.321 239.179 560.688C234.542 556.055 228.27 553.429 221.715 553.375C215.16 553.321 208.846 555.844 204.133 560.4L239.5 595.733ZM515.3 182.667L618.033 285.533L653.4 250.2L550.667 147.333L515.3 182.667ZM308.967 630L171.733 492.633L136.4 528L273.6 665.3L308.967 630ZM576.767 476.433L512.867 500.433L530.467 547.233L594.367 523.267L576.767 476.433ZM301.2 288L324.367 224.833L277.4 207.6L254.267 270.8L301.2 288ZM201.467 379.867C225.2 373.333 243.233 368.733 258 358.133L228.767 317.533C223.033 321.7 215.533 324.133 188.2 331.667L201.467 379.9V379.867ZM254.267 270.8C244.5 297.467 241.433 304.733 236.833 310.133L274.9 342.567C286.667 328.733 292.7 311.1 301.2 288L254.267 270.8ZM258 358.133C264.233 353.633 269.9 348.4 274.9 342.567L236.833 310.133C234.452 312.916 231.744 315.4 228.767 317.533L258 358.133ZM512.867 500.433C489.9 509.1 472.4 515.233 458.667 527.1L491.4 564.967C496.733 560.3 503.967 557.167 530.467 547.233L512.867 500.433ZM470.133 613.333C477.633 586.033 480.067 578.567 484.2 572.8L443.567 543.667C433 558.433 428.433 576.433 421.9 600.1L470.133 613.333ZM458.667 527.133C453 532 447.933 537.6 443.567 543.667L484.233 572.8C486.3 569.9 488.7 567.267 491.4 564.967L458.667 527.1V527.133ZM171.733 492.6C150.2 471.033 135.6 456.367 126.133 444.467C116.6 432.5 115.633 427.333 115.6 425.033L65.6 425.333C65.7333 444.733 75.3667 461 87 475.6C98.6667 490.267 115.7 507.267 136.367 527.933L171.733 492.6ZM188.2 331.667C160 339.467 136.8 345.8 119.433 352.8C102.1 359.733 85.6667 369.133 76 385.933L119.367 410.867C120.5 408.867 123.9 404.867 138.033 399.2C152.167 393.533 172.1 387.967 201.467 379.867L188.2 331.667ZM115.6 425C115.571 420.042 116.859 415.164 119.333 410.867L76 385.933C69.1034 397.913 65.5142 411.511 65.6 425.333L115.6 425ZM273.6 665.3C294.4 686.1 311.5 703.3 326.2 715C340.9 726.733 357.267 736.4 376.8 736.433L376.867 686.433C374.533 686.433 369.367 685.467 357.367 675.9C345.367 666.367 330.633 651.7 308.967 630L273.6 665.3ZM421.933 600.067C413.767 629.667 408.2 649.733 402.5 663.967C396.767 678.233 392.733 681.633 390.733 682.767L415.5 726.2C432.467 716.533 441.9 700 448.9 682.567C455.9 665.1 462.3 641.733 470.133 613.333L421.9 600.1L421.933 600.067ZM376.8 736.433C390.367 736.433 403.7 732.933 415.5 726.2L390.733 682.767C386.511 685.179 381.73 686.444 376.867 686.433L376.8 736.433ZM618.033 285.533C653.5 321 678.033 345.633 693.033 365.967C707.833 385.9 709.533 396.533 707.733 404.867L756.6 415.433C762.933 386.167 751.267 360.533 733.233 336.2C715.433 312.2 687.7 284.5 653.4 250.2L618.033 285.533ZM594.367 523.2C639.733 506.167 676.467 492.433 702.567 477.933C729.067 463.267 750.267 444.733 756.6 415.433L707.733 404.867C705.933 413.2 700 422.2 678.3 434.2C656.2 446.5 623.7 458.767 576.767 476.4L594.367 523.2ZM550.667 147.333C516.133 112.767 488.267 84.8001 464.167 66.8668C439.7 48.7335 413.9 36.9668 384.5 43.4668L395.3 92.2668C403.633 90.4335 414.267 92.1001 434.333 107.033C454.767 122.2 479.6 146.9 515.3 182.667L550.667 147.333ZM324.333 224.8C341.733 177.367 353.867 144.467 366.033 122.133C378.033 100.133 386.967 94.1335 395.3 92.2668L384.533 43.4668C355.133 49.9335 336.7 71.4668 322.133 98.2001C307.767 124.6 294.233 161.733 277.4 207.6L324.367 224.833L324.333 224.8ZM84.3333 751L239.5 595.733L204.133 560.4L48.9667 715.667L84.3333 751Z" fill="black"/>
</svg>