<svg width="439" height="439" viewBox="0 0 439 439" fill="none" xmlns="http://www.w3.org/2000/svg">
<g clip-path="url(#clip0_22_3)">
<path d="M384.125 0H274.375V27.4375H384.125C399.27 27.4375 411.562 39.7295 411.562 54.875V164.625H439V54.875C439 24.5703 414.43 0 384.125 0ZM411.562 384.125C411.562 399.27 399.27 411.562 384.125 411.562H274.375V439H384.125C414.43 439 439 414.43 439 384.125V274.375H411.562V384.125ZM27.4375 384.125V274.375H0V384.125C0 414.43 24.5703 439 54.875 439H164.625V411.562H54.875C39.7295 411.562 27.4375 399.27 27.4375 384.125ZM0 54.875V164.625H27.4375V54.875C27.4375 39.7295 39.7295 27.4375 54.875 27.4375H164.625V0H54.875C24.5703 0 0 24.5703 0 54.875Z" fill="black"/>
<svg viewBox="0 0 214 214">
  <path class="inner" fill="black" d="M30 0h154s30 0 30 30v154s0 30 -30 30h-154s-30 0 -30 -30v-154s0 -30 30 -30" />
</svg>
</g>
</svg>
